PathFileType	4	(X/Y/Z)	/Users/mathieubourgeois/Desktop/Analyse/Traitement/Sujet_05/Data/Transformed_Sujet_05_velo_60.trc
DataRate	CameraRate	NumFrames	NumMarkers	Units	OrigDataRate	OrigDataStartFrame	OrigNumFrames
120.000000	120.000000	5	36	mm	120.000000	721	1925
Frame#	Time	RFHD			RANE			STRN			LANI			LKNE			T10			RHUM			RWRB			C7			LFWT			LTOE			RTOE			LWRA			LBWT			RBWT			RFWT			LKNI			RKNI			RKNE			LANE			RANI			LHEE			RHEE			LHUM			LRAD			RRAD			RWRA			LWRB			LFHD			LBHD			RBHD			RSHO			LSHO			CLAV			LCAR			RCAR			
		X1	Y1	Z1	X2	Y2	Z2	X3	Y3	Z3	X4	Y4	Z4	X5	Y5	Z5	X6	Y6	Z6	X7	Y7	Z7	X8	Y8	Z8	X9	Y9	Z9	X10	Y10	Z10	X11	Y11	Z11	X12	Y12	Z12	X13	Y13	Z13	X14	Y14	Z14	X15	Y15	Z15	X16	Y16	Z16	X17	Y17	Z17	X18	Y18	Z18	X19	Y19	Z19	X20	Y20	Z20	X21	Y21	Z21	X22	Y22	Z22	X23	Y23	Z23	X24	Y24	Z24	X25	Y25	Z25	X26	Y26	Z26	X27	Y27	Z27	X28	Y28	Z28	X29	Y29	Z29	X30	Y30	Z30	X31	Y31	Z31	X32	Y32	Z32	X33	Y33	Z33	X34	Y34	Z34	X35	Y35	Z35	X36	Y36	Z36	

722	6.008333333333333	125.4261093139648	1319.24365234375	154.5715179443359	-255.2101593017578	603.41748046875	190.2608337402343	-217.0318603515625	1160.424682617188	34.0285530090331	-232.4702758789062	265.2159423828125	-64.69425964355473	-218.9619445800781	661.3875122070312	-140.8255157470704	-340.4302673339844	1363.251708984375	45.19567108154284	17.6522407531738	1025.694946289062	206.2907562255859	241.6883697509765	889.9490356445312	249.4040222167968	-101.0458679199219	1416.287231445312	50.86251449584951	-363.7340087890625	1070.519653320312	-95.41444396972668	-101.7481918334961	142.8553009033203	-99.64007568359378	-114.284065246582	462.01513671875	158.0089721679687	274.2918090820312	931.5203857421875	-146.3698120117188	-536.1368408203125	1100.301025390625	-26.81087303161634	-530.553466796875	1114.322509765625	107.5909347534178	-371.2935485839844	1085.212524414062	152.1148681640624	-213.3824462890625	627.635986328125	-34.89653015136725	-38.03173828125001	887.4722900390625	116.9958496093749	-49.65156555175784	925.0057983398438	221.9297332763671	-270.0771179199219	270.8960571289062	-139.0877075195313	-224.6316986083984	595.1098022460938	108.3798370361327	-321.0222473144531	242.8427886962891	-93.52067565917974	-320.398193359375	599.2356567382812	144.445816040039	21.08456039428713	1048.131103515625	-146.5234680175782	69.76316070556643	1078.597900390625	-186.1376190185547	57.07804489135739	1058.467041015625	258.0354003906249	272.2147827148438	934.486083984375	197.4732666015625	238.941390991211	884.7014770507812	-181.1571502685547	155.6145477294922	1315.890502929688	9.611228942871033	50.55368423461914	1424.55029296875	-21.71429443359383	20.18918609619139	1453.147705078125	109.4077529907226	-41.79237365722658	1314.593994140625	192.5063171386718	-59.29595947265624	1333.8935546875	-102.4041595458985	-97.3392333984375	1272.31689453125	46.02776718139639	316.2919006347656	925.9935302734375	-223.8349761962891	319.9976501464843	927.2401733398438	285.6034240722656	
723	6.016666666666667	125.553840637207	1319.121215820312	154.7748260498046	-247.8359375	601.8703002929688	190.4055633544921	-217.1312103271484	1160.310424804688	34.48837661743154	-240.0406188964844	266.1975402832031	-64.5980606079102	-219.2928161621093	661.7000732421875	-141.229476928711	-340.3460083007812	1363.249145507812	45.76719284057604	17.6518802642822	1025.76318359375	206.5116119384765	241.6979675292968	889.9243774414062	249.4259033203125	-100.9080200195312	1416.158569335938	51.45889282226553	-364.1119995117188	1070.75244140625	-95.23739624023449	-111.6436538696289	141.6267395019531	-99.82734680175784	-103.7995910644531	463.7624816894531	157.9845733642578	274.2712707519531	931.5106201171875	-146.3499908447266	-536.4486694335938	1100.533569335938	-26.25666618347181	-530.6484375	1114.364135742188	108.1082305908202	-371.7243347167969	1085.452514648438	152.6029052734374	-213.7643585205078	627.9994506835938	-35.36709213256842	-36.84946441650392	890.04541015625	116.3746490478515	-49.05961608886722	928.0906372070312	221.1894073486328	-277.8194885253906	272.4061584472656	-138.9507293701172	-214.3757019042969	593.83740234375	109.7459640502929	-329.52392578125	245.7973022460938	-94.27566528320318	-313.0379638671875	596.2747192382812	144.7230224609374	21.04323959350588	1048.075439453125	-146.2652893066407	69.63176727294925	1078.545288085938	-185.9247589111329	57.12678909301755	1058.51025390625	258.2589111328124	272.205078125	934.5170288085938	197.521011352539	239.0403747558594	884.6585693359375	-180.9855499267578	155.6751708984375	1315.93896484375	9.780129432678162	50.47991561889648	1424.634033203125	-21.44601058959969	20.26562499999999	1453.058837890625	109.8576354980468	-41.68407440185549	1314.704223632812	192.8370819091796	-59.41231155395506	1333.802978515625	-102.1139526367188	-97.31212615966797	1272.284423828125	46.46353912353506	316.2537231445312	926.0076293945312	-223.8273315429688	320.0161743164062	927.2182006835938	285.6134338378906	
724	6.025	125.7008743286133	1318.98876953125	154.8609924316406	-240.5536804199219	599.8013916015625	190.5059814453124	-217.3289184570312	1160.184692382812	35.00728607177724	-247.6215362548828	267.4056701660156	-64.39694213867192	-219.1246032714843	662.34130859375	-141.6216735839844	-340.3237609863281	1363.246826171875	46.29373931884753	17.66030502319333	1025.816528320312	206.7410430908203	241.705810546875	889.9348754882812	249.4185485839843	-100.8574447631836	1416.081176757812	51.74358367919912	-364.5677795410156	1070.994384765625	-95.03522491455089	-121.5097427368164	140.7669372558594	-99.96600341796878	-93.47084045410158	464.8937683105469	157.9865570068359	274.2453002929688	931.4893188476562	-146.3277587890625	-536.748046875	1100.75341796875	-25.78366851806654	-530.7787475585938	1114.360961914062	108.6123046874999	-372.1007385253906	1085.632446289062	153.0431976318358	-213.67333984375	628.684326171875	-35.79360961914069	-35.89973068237306	892.1732788085938	115.7097244262695	-48.63218688964847	930.409912109375	220.4167785644531	-285.3217163085938	274.4705200195312	-138.7681579589844	-207.5229644775391	592.4862670898438	109.5936660766601	-337.5029907226562	248.8017425537109	-93.99037933349615	-305.6744079589844	592.700927734375	144.9619750976562	21.01202392578127	1047.971557617188	-146.0412292480469	69.50027465820315	1078.461059570312	-185.7059478759766	57.16490173339841	1058.55908203125	258.4778747558593	272.1975708007812	934.5348510742188	197.5350036621093	239.0667266845703	884.622802734375	-180.9427795410157	155.6702728271484	1315.9765625	9.830782890319764	50.40612411499023	1424.668212890625	-21.21390342712411	20.30931091308592	1452.946899414062	110.2014999389648	-41.59595489501955	1314.805541992188	193.0900726318359	-59.55069351196288	1333.667602539062	-101.8515014648438	-97.27622985839844	1272.254028320312	46.79190063476553	316.2292175292969	926.0130615234375	-223.8463134765625	320.0416259765624	927.201416015625	285.6068725585938	
725	6.033333333333333	126.0903778076172	1318.868774414062	154.2905120849609	-233.3654022216797	597.0702514648438	190.5522003173828	-217.5469360351562	1160.049682617188	35.39674377441396	-254.8663635253906	269.3817749023438	-64.25062561035161	-218.4885864257812	663.2608642578125	-141.9564819335938	-340.3387756347656	1363.23095703125	46.84432220458972	17.6676216125488	1025.864501953125	206.9922790527343	241.7279815673828	889.9393310546875	249.4051361083984	-100.9201507568359	1416.011108398438	51.78129577636709	-364.9975891113281	1071.2255859375	-94.78660583496105	-131.3314056396484	140.3966827392578	-100.0755996704102	-83.27092742919923	465.5464172363281	157.9754028320312	274.243896484375	931.4722290039062	-146.3592681884766	-537.1650390625	1100.939697265625	-25.18996620178236	-530.9295654296875	1114.306884765625	109.1252288818358	-372.4502258300781	1085.696899414062	153.4907379150389	-213.2712097167969	629.6441040039062	-36.16314315795905	-35.05990600585939	893.6586303710938	115.1114807128906	-48.34206390380862	932.0419311523438	219.6436767578124	-292.5588989257812	277.0825500488281	-138.5486907958985	-201.1315460205078	590.4619140625	109.2371444702148	-345.1939086914062	252.3498382568359	-93.53769683837896	-298.3714599609375	588.4950561523438	145.1090850830078	20.96461677551271	1047.81787109375	-145.8406372070313	69.99759674072268	1078.4853515625	-185.002426147461	57.24048233032224	1058.586181640625	258.6392517089843	272.2041320800781	934.5665283203125	197.5205535888672	239.0176086425782	884.5951538085938	-180.9762725830078	155.613037109375	1315.99267578125	9.793995857238709	50.33668899536133	1424.654907226562	-20.93662643432625	20.33080101013182	1452.785278320312	110.4538269042968	-41.53882598876955	1314.8720703125	193.2747650146484	-59.70112228393553	1333.481689453125	-101.5542068481446	-97.31547546386719	1272.1796875	47.097801208496	316.1912231445312	926.0277709960938	-223.8800048828125	320.0635070800781	927.2061767578125	285.5876770019531	
726	6.041666666666667	125.9361267089844	1318.671142578125	154.7015838623046	-226.2743835449219	593.73828125	190.5861053466796	-217.9265899658203	1159.876586914062	35.86220169067373	-262.0294799804688	271.8196105957031	-64.05683135986332	-217.3952941894531	664.446044921875	-142.3145446777344	-340.3826293945312	1363.211547851562	47.32889175415026	17.66495513916013	1025.898071289062	207.1832733154296	241.7487182617187	889.955810546875	249.3921203613281	-100.9835662841797	1415.851684570312	52.01749801635732	-365.4972534179688	1071.4677734375	-94.47647094726574	-141.0631713867188	140.42578125	-100.2380905151367	-73.18798828125001	465.7394104003906	157.9027404785156	274.2001647949219	931.4589233398438	-146.3789215087891	-537.5453491210938	1101.08984375	-24.70383834838881	-531.1484985351562	1114.23486328125	109.7377853393553	-372.7368774414062	1085.650634765625	153.8972167968749	-212.2812194824219	630.898193359375	-36.53990936279303	-34.4718704223633	895.0955200195312	113.8308792114257	-48.19670104980472	932.849609375	218.9072723388671	-299.5827026367188	280.1878967285156	-138.3463439941407	-194.9571228027344	587.8453979492188	109.3544082641601	-352.6691589355469	256.3791198730469	-92.96628570556646	-291.12060546875	583.7748413085938	145.3935546874999	20.84889602661135	1047.613403320312	-145.6067962646485	69.87638092041018	1078.325073242188	-184.8398437500001	57.17469787597653	1058.841430664062	258.8763732910156	272.1958312988281	934.585205078125	197.4844055175781	238.9471588134766	884.5281982421875	-181.0347137451172	155.4990844726562	1315.969482421875	9.653790473937928	50.16580963134766	1424.636474609375	-20.8119487762452	20.34125900268553	1452.631469726562	110.6279983520507	-41.49517822265627	1314.927978515625	193.4320068359374	-59.8444137573242	1333.286010742188	-101.2803955078126	-97.40758514404297	1272.083862304688	47.3867645263671	316.162109375	926.0341796875	-223.9147338867188	320.0814819335937	927.223388671875	285.5310974121094	
